# 3ds Max Wavefront OBJ Exporter v0.97b - (c)2007 guruware
# File Created: 03.11.2020 19:47:00

mtllib Fight_Arms_Sword_001.mtl

#
# object Fight_Arms_Sword_001
#

v  0.000000 0.531295 0.069175
v  0.000000 0.657375 -0.000107
v  0.000000 0.531295 -0.069282
v  0.023401 0.531295 -0.000120
v  -0.023401 0.531295 -0.000078
v  0.000000 0.098654 0.069146
v  0.000000 0.098654 -0.069226
v  0.018412 0.098654 -0.000122
v  -0.018412 0.098654 -0.000076
v  0.025809 0.071874 0.112734
v  0.025809 0.108763 0.112734
v  -0.025809 0.071874 0.112787
v  -0.025809 0.108763 0.112787
v  0.025809 0.108763 -0.112788
v  0.025809 0.071874 -0.112788
v  -0.025809 0.071874 -0.112735
v  -0.025809 0.108763 -0.112735
v  0.013789 -0.074202 0.035649
v  -0.013789 -0.074202 0.035697
v  0.013789 -0.074202 -0.035911
v  -0.013789 -0.074202 -0.035863
v  0.013789 0.076713 0.035649
v  -0.013789 0.076713 0.035697
v  0.013789 0.076713 -0.035911
v  -0.013789 0.076713 -0.035863
# 25 vertices

vn 0.999933 -0.011531 -0.000293
vn -0.000082 -0.000130 -1.000000
vn -0.000269 0.218223 -0.975899
vn 0.996446 0.084235 -0.000289
vn -0.999934 -0.011531 -0.000128
vn 0.000082 -0.000065 1.000000
vn 0.000081 0.218488 0.975840
vn -0.996446 0.084236 -0.000083
vn 0.000000 1.000000 -0.000245
vn 0.577083 0.577293 -0.577675
vn 0.577083 -0.577294 -0.577674
vn -0.577618 -0.577407 -0.577026
vn -0.577618 0.577407 -0.577026
vn -0.577081 0.577295 0.577675
vn -0.577081 -0.577294 0.577676
vn 0.577620 -0.577406 0.577025
vn 0.577619 0.577406 0.577025
vn -0.577807 -0.577439 -0.576804
vn 0.576893 -0.577262 -0.577896
vn 0.577807 -0.577439 0.576804
vn -0.576893 -0.577261 0.577896
vn -0.707721 0.000000 -0.706492
vn -0.706492 0.000000 0.707721
vn 0.706492 -0.000000 -0.707721
vn 0.707721 -0.000000 0.706492
# 25 vertex normals

vt 0.007414 0.470119 0.000000
vt 0.007414 0.403168 0.000000
vt 0.436358 0.403114 0.000000
vt 0.436358 0.470121 0.000000
vt 0.007414 0.470163 0.000000
vt 0.007414 0.537228 0.000000
vt 0.436358 0.537255 0.000000
vt 0.436358 0.470161 0.000000
vt 0.554048 0.470133 0.000000
vt 0.420062 0.849739 0.000000
vt 0.389679 0.849739 0.000000
vt 0.389679 0.753599 0.000000
vt 0.420062 0.753599 0.000000
vt 0.143023 0.645191 0.000000
vt 0.143023 0.623917 0.000000
vt 0.314665 0.623917 0.000000
vt 0.314665 0.645191 0.000000
vt 0.314665 0.580937 0.000000
vt 0.143023 0.580936 0.000000
vt 0.314665 0.684657 0.000000
vt 0.143023 0.684657 0.000000
vt 0.349536 0.753599 0.000000
vt 0.377537 0.753599 0.000000
vt 0.377537 0.849739 0.000000
vt 0.349535 0.849739 0.000000
vt 0.078079 0.715728 0.000000
vt 0.078079 0.580188 0.000000
vt 0.130209 0.580188 0.000000
vt 0.130209 0.715728 0.000000
vt 0.048392 0.715728 0.000000
vt 0.048392 0.580188 0.000000
vt 0.069578 0.580188 0.000000
vt 0.069578 0.715728 0.000000
vt 0.130208 0.580188 0.000000
vt 0.130208 0.715728 0.000000
# 35 texture coords

o Fight_Arms_Sword_001
g Fight_Arms_Sword_001
usemtl Material__1
s 1
f -18/-35/-25 -19/-34/-24 -23/-33/-23 -22/-32/-22 
f -17/-31/-21 -20/-30/-20 -25/-29/-19 -21/-28/-18 
s 2
f -25/-29/-19 -24/-27/-17 -21/-28/-18 
s 4
f -23/-33/-23 -24/-27/-17 -22/-32/-22 
s 8
f -22/-32/-22 -24/-27/-17 -25/-29/-19 
s 16
f -25/-29/-19 -20/-30/-20 -18/-35/-25 -22/-32/-22 
f -21/-28/-18 -24/-27/-17 -23/-33/-23 
s 8
f -23/-33/-23 -19/-34/-24 -17/-31/-21 -21/-28/-18 
s 1
f -12/-26/-16 -11/-25/-15 -10/-24/-14 -9/-23/-13 
f -13/-26/-12 -14/-25/-11 -16/-24/-10 -15/-23/-9 
s 2
f -9/-22/-13 -10/-21/-14 -14/-20/-11 -13/-19/-12 
s 4
f -16/-18/-10 -14/-20/-11 -10/-21/-14 -11/-17/-15 
s 2
f -15/-20/-9 -16/-19/-10 -11/-22/-15 -12/-21/-16 
s 4
f -15/-16/-9 -12/-15/-16 -9/-22/-13 -13/-19/-12 
s 1
f -5/-14/-8 -6/-13/-7 -8/-12/-6 -7/-11/-5 
s 2
f -1/-10/-4 -5/-9/-8 -7/-8/-5 -3/-7/-3 
s 4
f -2/-6/-2 -6/-5/-7 -5/-4/-8 -1/-3/-4 
s 2
f -4/-10/-1 -8/-9/-6 -6/-2/-7 -2/-1/-2 
s 4
f -3/-6/-3 -7/-5/-5 -8/-4/-6 -4/-3/-1 
# 15 polygons - 4 triangles

