# 3ds Max Wavefront OBJ Exporter v0.97b - (c)2007 guruware
# File Created: 03.11.2020 19:35:24

mtllib Fight_Arms_Axe_001.mtl

#
# object Fight_Arms_Axe_001
#

v  0.000000 0.543313 0.185582
v  0.000000 0.181830 0.185519
v  0.037538 0.460061 -0.072044
v  0.037538 0.265081 -0.072044
v  -0.037538 0.460061 -0.072044
v  -0.037538 0.265081 -0.072044
v  0.011956 -0.120242 0.026657
v  -0.011956 -0.120242 0.026707
v  0.011956 -0.120242 -0.029180
v  -0.011956 -0.120242 -0.029129
v  0.009203 0.333490 0.026657
v  -0.009203 0.333490 0.026707
v  0.014643 0.333490 -0.029180
v  -0.014643 0.333490 -0.029129
v  0.000000 0.362571 0.253497
v  0.037538 0.362571 -0.072044
v  -0.037538 0.362571 -0.072044
v  0.028894 0.494196 0.115569
v  0.028894 0.362571 0.146821
v  0.028894 0.230946 0.115541
v  -0.028894 0.494196 0.115569
v  -0.028894 0.362571 0.146821
v  -0.028894 0.230946 0.115541
v  0.017731 -0.176876 0.040129
v  -0.017730 -0.176876 0.040204
v  -0.017731 -0.176876 -0.042601
v  0.017731 -0.176876 -0.042677
v  0.028894 0.230946 0.115541
v  -0.028894 0.230946 0.115541
v  0.000000 0.181830 0.185519
v  0.000000 0.181830 0.185519
# 31 vertices

vn 0.000000 0.000000 -1.000000
vn -0.953458 0.091773 0.287220
vn -0.982975 0.051269 0.176439
vn -0.982785 0.000000 0.184751
vn -0.957500 0.000000 0.288433
vn 0.000000 0.933207 -0.359340
vn 0.000000 0.983803 -0.179253
vn 0.982977 0.051257 0.176434
vn 0.982784 0.000000 0.184758
vn 0.999129 0.000000 0.041723
vn 0.999111 0.005960 0.041723
vn 0.000000 -1.000000 -0.000000
vn -0.998648 0.051857 0.003576
vn -0.995309 0.005960 0.096564
vn -0.995977 0.005960 0.089407
vn -0.998670 0.051558 -0.000000
vn -0.002106 0.119850 -0.992790
vn -0.001751 0.000000 -0.999999
vn 0.998372 0.056921 0.003576
vn 0.995309 -0.005966 0.096564
vn 0.996037 -0.004771 0.088816
vn 0.998362 0.057221 -0.000000
vn 0.002124 0.120733 0.992683
vn 0.002765 0.000000 0.999996
vn 0.002738 0.000000 0.999996
vn 0.002105 0.120733 0.992683
vn 0.982915 -0.052452 0.176429
vn 0.999111 -0.005960 0.041723
vn -0.982915 -0.052452 0.176429
vn -0.953561 -0.090587 0.287256
vn 0.957500 0.000000 0.288433
vn 0.953459 0.091773 0.287215
vn 0.953562 -0.090587 0.287253
vn -0.999111 0.005960 0.041723
vn -0.999129 0.000000 0.041723
vn -0.999112 -0.005960 0.041722
vn 0.000000 0.818617 -0.574340
vn 0.002068 0.231579 0.972814
vn 0.002086 0.231579 0.972814
vn -0.994853 0.101328 -0.000000
vn -0.002068 0.231579 -0.972814
vn 0.994853 0.101328 -0.000000
vn 0.000000 -0.983784 -0.179358
vn 0.000000 -0.933130 -0.359539
vn -0.000000 -0.818419 -0.574621
# 45 vertex normals

vt 0.402586 0.473630 0.000000
vt 0.403978 0.436647 0.000000
vt 0.450627 0.436557 0.000000
vt 0.454801 0.473529 0.000000
vt 0.023131 0.466737 0.000000
vt 0.020397 0.421959 0.000000
vt 0.078824 0.433391 0.000000
vt 0.078351 0.466856 0.000000
vt 0.511393 0.391647 0.000000
vt 0.492366 0.391541 0.000000
vt 0.478578 0.349873 0.000000
vt 0.526145 0.350138 0.000000
vt 0.079928 0.355306 0.000000
vt 0.016297 0.354792 0.000000
vt 0.349918 0.379680 0.000000
vt 0.349918 0.350179 0.000000
vt 0.395216 0.350179 0.000000
vt 0.395216 0.379680 0.000000
vt 0.011569 0.485885 0.000000
vt 0.275984 0.485885 0.000000
vt 0.275984 0.600768 0.000000
vt 0.011569 0.600768 0.000000
vt 0.011569 0.619502 0.000000
vt 0.275984 0.619502 0.000000
vt 0.275984 0.666191 0.000000
vt 0.011569 0.666191 0.000000
vt 0.011569 0.600767 0.000000
vt 0.137567 0.422512 0.000000
vt 0.143559 0.355820 0.000000
vt 0.405369 0.399665 0.000000
vt 0.446453 0.399586 0.000000
vt 0.133572 0.466974 0.000000
vt 0.501558 0.460370 0.000000
vt 0.432433 0.377122 0.000000
vt 0.421564 0.377811 0.000000
vt 0.417274 0.351517 0.000000
vt 0.433391 0.350494 0.000000
vt 0.440667 0.454520 0.000000
vt 0.440667 0.415237 0.000000
vt 0.427028 0.405742 0.000000
vt 0.427028 0.463998 0.000000
vt 0.421564 0.377812 0.000000
vt 0.286725 0.439438 0.000000
vt 0.313100 0.439777 0.000000
vt 0.307027 0.457830 0.000000
vt 0.286725 0.457570 0.000000
vt 0.295515 0.465813 0.000000
# 47 texture coords

o Fight_Arms_Axe_001
g Fight_Arms_Axe_001
usemtl Material__29
s off
f -29/-47/-45 -16/-46/-45 -15/-45/-45 -27/-44/-45 
f -31/-43/-44 -11/-42/-43 -10/-41/-42 -17/-40/-41 
f -11/-39/-40 -14/-38/-40 -29/-37/-39 -27/-36/-39 
f -14/-42/-38 -13/-41/-37 -16/-35/-36 -29/-34/-35 
f -8/-33/-34 -7/-32/-34 -6/-31/-34 
f -6/-31/-34 -5/-30/-34 -8/-33/-34 
f -24/-29/-33 -20/-28/-32 -18/-27/-31 
f -18/-27/-31 -22/-26/-30 -24/-29/-33 
f -22/-25/-29 -18/-24/-28 -19/-23/-28 
f -19/-23/-28 -23/-22/-29 -22/-25/-29 
f -23/-29/-27 -19/-28/-26 -21/-27/-25 
f -21/-27/-25 -25/-21/-24 -23/-29/-27 
f -25/-25/-23 -21/-24/-22 -20/-23/-21 
f -20/-23/-21 -24/-22/-20 -25/-25/-23 
f -13/-41/-37 -12/-20/-19 -28/-19/-18 -16/-35/-36 
f -15/-45/-45 -16/-46/-45 -28/-18/-45 -26/-17/-45 
f -17/-40/-41 -10/-41/-42 -9/-20/-17 -30/-16/-16 
f -17/-40/-15 -13/-41/-37 -14/-42/-38 -31/-43/-14 
f -30/-16/-13 -12/-20/-19 -13/-41/-37 -17/-40/-15 
f -10/-41/-42 -11/-42/-43 -27/-34/-12 -15/-35/-11 
f -9/-20/-17 -10/-41/-42 -15/-35/-11 -26/-19/-10 
f -31/-15/-9 -14/-38/-40 -11/-39/-40 
f -25/-14/-23 -24/-13/-20 -7/-12/-8 -8/-11/-7 
f -24/-10/-33 -22/-9/-30 -6/-8/-6 -7/-7/-6 
f -22/-6/-29 -23/-14/-29 -5/-11/-5 -6/-12/-5 
f -23/-9/-27 -25/-10/-24 -8/-7/-4 -5/-8/-4 
f -26/-5/-3 -28/-4/-3 -4/-3/-2 -3/-2/-2 
f -3/-2/-2 -4/-3/-2 -2/-1/-1 -1/-1/-1 
# 17 polygons - 11 triangles

