# 3ds Max Wavefront OBJ Exporter v0.97b - (c)2007 guruware
# File Created: 03.11.2020 19:41:54

mtllib Fight_Arms_Gun_001.mtl

#
# object Fight_Arms_Gun_001
#

v  -0.014597 0.065055 0.291001
v  0.014597 0.065055 0.291001
v  -0.014597 0.083551 0.078183
v  0.014597 0.083551 0.078183
v  -0.026770 0.151831 0.338488
v  0.026770 0.151831 0.338488
v  -0.026770 0.151831 0.078183
v  0.026770 0.151831 0.078183
v  -0.035179 0.056083 0.241980
v  -0.035179 0.056083 -0.036101
v  0.035179 0.056083 -0.036101
v  0.035179 0.056083 0.241980
v  -0.035179 0.138822 0.288899
v  0.035179 0.138822 0.288899
v  0.035179 0.138822 -0.036101
v  -0.035179 0.138822 -0.036101
v  0.058203 0.097452 0.266249
v  -0.058203 0.097452 0.266249
v  0.058203 0.097452 -0.036101
v  -0.058203 0.097452 -0.036101
v  -0.014852 -0.061254 -0.019506
v  0.014852 -0.061254 -0.019506
v  -0.014852 -0.061254 -0.094077
v  0.014852 -0.061254 -0.094077
v  -0.031258 0.065111 0.118364
v  0.031258 0.065111 0.118364
v  -0.031258 0.065111 -0.029478
v  0.031258 0.065111 -0.029478
v  -0.017682 0.149631 0.143728
v  0.017682 0.149631 0.143728
v  -0.017682 0.149631 0.093761
v  0.017682 0.149631 0.093761
v  0.000000 0.202321 0.131870
v  0.000000 0.202321 0.105620
v  0.058522 0.102345 0.692099
v  0.029261 0.051663 0.692099
v  -0.029261 0.051663 0.692099
v  -0.058522 0.102345 0.692099
v  -0.029261 0.153026 0.692099
v  0.029261 0.153026 0.692099
v  0.036001 0.102345 0.222795
v  0.018000 0.071167 0.222795
v  -0.018000 0.071167 0.222795
v  -0.036001 0.102345 0.222795
v  -0.018000 0.133522 0.222795
v  0.018000 0.133522 0.222795
# 46 vertices

vn -0.553481 -0.744240 0.373853
vn -0.522283 -0.594459 -0.611424
vn 0.522283 -0.594459 -0.611424
vn 0.553481 -0.744240 0.373853
vn -0.587956 0.401430 0.702255
vn 0.587956 0.401430 0.702255
vn 0.630640 0.528154 -0.568636
vn -0.630640 0.528154 -0.568636
vn -0.408940 -0.820952 0.398505
vn -0.402036 -0.683854 -0.608860
vn 0.402036 -0.683854 -0.608860
vn 0.408940 -0.820952 0.398505
vn -0.421621 0.491384 0.762087
vn 0.421621 0.491384 0.762087
vn 0.402036 0.683854 -0.608860
vn -0.402036 0.683854 -0.608860
vn 0.797832 -0.192717 0.571248
vn -0.797832 -0.192717 0.571248
vn 0.790633 0.000000 -0.612291
vn -0.790633 0.000000 -0.612291
vn -0.584488 -0.763135 0.275677
vn -0.524371 -0.453718 -0.720538
vn 0.524371 -0.453718 -0.720538
vn 0.584488 -0.763135 0.275677
vn 0.429527 -0.690609 0.581864
vn -0.429527 -0.690609 0.581864
vn 0.830571 0.164212 -0.532152
vn -0.830571 0.164212 -0.532152
vn -0.673946 0.370066 0.639412
vn 0.673946 0.370066 0.639412
vn 0.000000 0.899666 0.436578
vn 0.673946 0.370066 -0.639412
vn 0.000000 0.899666 -0.436578
vn -0.673946 0.370066 -0.639412
vn 0.805989 0.000000 0.591931
vn 0.402994 -0.698007 0.591931
vn 0.499425 -0.865030 -0.047933
vn 0.998851 0.000001 -0.047933
vn -0.402995 -0.698007 0.591930
vn -0.499425 -0.865030 -0.047933
vn -0.805989 -0.000000 0.591930
vn -0.998851 0.000000 -0.047933
vn -0.402994 0.698007 0.591931
vn -0.499425 0.865030 -0.047933
vn 0.402994 0.698007 0.591931
vn 0.499425 0.865030 -0.047933
# 46 vertex normals

vt 0.153770 0.440743 0.000000
vt 0.153770 0.772623 0.000000
vt 0.204354 0.772622 0.000000
vt 0.204354 0.440743 0.000000
vt 0.153770 0.772622 0.000000
vt 0.204354 0.778966 0.000000
vt 0.153770 0.778966 0.000000
vt 0.153770 0.805976 0.000000
vt 0.204354 0.805976 0.000000
vt 0.212022 0.440743 0.000000
vt 0.212022 0.772622 0.000000
vt 0.280790 0.772623 0.000000
vt 0.280790 0.440743 0.000000
vt 0.144931 0.440743 0.000000
vt 0.144931 0.772623 0.000000
vt 0.094347 0.772622 0.000000
vt 0.094347 0.440743 0.000000
vt 0.094347 0.772623 0.000000
vt 0.094347 0.778966 0.000000
vt 0.144931 0.778966 0.000000
vt 0.144931 0.805976 0.000000
vt 0.094347 0.805976 0.000000
vt 0.008866 0.440743 0.000000
vt 0.008866 0.772622 0.000000
vt 0.043250 0.772623 0.000000
vt 0.043250 0.440743 0.000000
vt 0.087813 0.805976 0.000000
vt 0.037229 0.805976 0.000000
vt 0.037229 0.778966 0.000000
vt 0.087813 0.778966 0.000000
vt 0.008866 0.772623 0.000000
vt 0.053081 0.772623 0.000000
vt 0.087465 0.772623 0.000000
vt 0.087465 0.440743 0.000000
vt 0.053081 0.440743 0.000000
vt 0.594225 0.677929 0.000000
vt 0.594225 0.745141 0.000000
vt 0.661437 0.745141 0.000000
vt 0.661437 0.677929 0.000000
vt 0.631745 0.756377 0.000000
vt 0.695314 0.756377 0.000000
vt 0.730423 0.890164 0.000000
vt 0.596636 0.890164 0.000000
vt 0.737063 0.754310 0.000000
vt 0.703861 0.754310 0.000000
vt 0.732623 0.848897 0.000000
vt 0.798448 0.848897 0.000000
vt 0.372388 0.726651 0.000000
vt 0.439929 0.726651 0.000000
vt 0.406159 0.592333 0.000000
vt 0.291470 0.592333 0.000000
vt 0.383702 0.592333 0.000000
vt 0.361813 0.726651 0.000000
vt 0.313359 0.726651 0.000000
vt 0.829418 0.352327 1.000000
vt 0.861664 0.352327 1.000000
vt 0.861664 0.494749 1.000000
vt 0.829418 0.494749 1.000000
vt 0.893911 0.352327 1.000000
vt 0.893911 0.494749 1.000000
vt 0.700434 0.352327 1.000000
vt 0.732680 0.352327 1.000000
vt 0.732680 0.494749 1.000000
vt 0.700434 0.494749 1.000000
vt 0.764926 0.352327 1.000000
vt 0.764926 0.494749 1.000000
vt 0.797172 0.352327 1.000000
vt 0.797172 0.494749 1.000000
vt 0.658933 0.492643 0.000000
vt 0.589570 0.492643 0.000000
vt 0.554888 0.423280 0.000000
vt 0.693614 0.423280 0.000000
vt 0.589570 0.353917 0.000000
vt 0.658933 0.353917 0.000000
# 74 texture coords

o Fight_Arms_Gun_001
g Fight_Arms_Gun_001
usemtl Material__0
s 1
f -46/-74/-46 -44/-73/-45 -43/-72/-44 -45/-71/-43 
f -42/-71/-42 -41/-74/-41 -39/-70/-40 -40/-72/-39 
s 2
f -46/-69/-46 -45/-68/-43 -41/-67/-41 -42/-66/-42 
s 4
f -45/-65/-43 -43/-64/-44 -39/-63/-40 -41/-62/-41 
s 2
f -43/-67/-44 -44/-66/-45 -40/-69/-39 -39/-68/-40 
s 4
f -44/-63/-45 -46/-62/-46 -42/-65/-42 -40/-64/-39 
s 1
f -38/-61/-38 -37/-60/-37 -36/-59/-36 -35/-58/-35 
f -34/-58/-34 -33/-61/-33 -32/-60/-32 -31/-57/-31 
s 2
f -38/-56/-38 -35/-55/-35 -30/-54/-30 -29/-53/-29 
s 4
f -35/-52/-35 -36/-51/-36 -28/-50/-28 -30/-49/-30 
s 2
f -36/-48/-36 -37/-47/-37 -27/-46/-27 -28/-45/-28 
s 4
f -37/-44/-37 -38/-52/-38 -29/-49/-29 -27/-50/-27 
s 2
f -30/-45/-30 -33/-48/-33 -34/-47/-34 -29/-46/-29 
s 8
f -28/-43/-28 -32/-42/-32 -33/-41/-33 -30/-40/-30 
s 2
f -27/-53/-27 -31/-56/-31 -32/-55/-32 -28/-54/-28 
s 8
f -29/-40/-29 -34/-41/-34 -31/-42/-31 -27/-43/-27 
s 1
f -26/-39/-26 -24/-38/-25 -23/-37/-24 -25/-36/-23 
f -26/-35/-26 -25/-34/-23 -21/-33/-22 -22/-32/-21 
s 2
f -25/-31/-23 -23/-30/-24 -19/-29/-20 -21/-28/-22 
s 4
f -23/-34/-24 -24/-35/-25 -20/-32/-19 -19/-33/-20 
s 2
f -24/-30/-25 -26/-31/-26 -22/-28/-21 -20/-29/-19 
s 1
f -18/-27/-18 -17/-26/-17 -14/-25/-16 
s 2
f -17/-24/-17 -15/-23/-15 -13/-22/-14 -14/-21/-16 
s 1
f -15/-26/-15 -16/-27/-13 -13/-25/-14 
s 4
f -16/-23/-13 -18/-24/-18 -14/-21/-16 -13/-22/-14 
s 1
f -12/-20/-12 -11/-19/-11 -5/-18/-10 -6/-17/-9 
s 2
f -11/-19/-11 -10/-16/-8 -4/-15/-7 -5/-18/-10 
s 1
f -10/-14/-8 -9/-13/-6 -3/-12/-5 -4/-11/-7 
s 2
f -9/-13/-6 -8/-10/-4 -2/-9/-3 -3/-12/-5 
s 1
f -8/-10/-4 -7/-8/-2 -1/-7/-1 -2/-9/-3 
s 2
f -7/-8/-2 -12/-20/-12 -6/-17/-9 -1/-7/-1 
s 4
f -7/-6/-2 -8/-5/-4 -9/-4/-6 -12/-3/-12 
f -9/-4/-6 -10/-2/-8 -11/-1/-11 -12/-3/-12 
# 31 polygons - 2 triangles

